<svg xmlns="http://www.w3.org/2000/svg" version="1.1" xmlns:xlink="http://www.w3.org/1999/xlink" xmlns:svgjs="http://svgjs.com/svgjs" width="1440" height="560" preserveAspectRatio="none" viewBox="0 0 1440 560"><g mask="url(&quot;#SvgjsMask1016&quot;)" fill="none"><rect width="1440" height="560" x="0" y="0" fill="#0e2a47"></rect><use xlink:href="#SvgjsG1019" transform="translate(0, 0)" fill="#0f457b"></use><use xlink:href="#SvgjsG1019" transform="translate(0, 480)" fill="#0f457b"></use><use xlink:href="#SvgjsG1019" transform="translate(480, 0)" fill="#0f457b"></use><use xlink:href="#SvgjsG1019" transform="translate(480, 480)" fill="#0f457b"></use><use xlink:href="#SvgjsG1019" transform="translate(960, 0)" fill="#0f457b"></use><use xlink:href="#SvgjsG1019" transform="translate(960, 480)" fill="#0f457b"></use></g><defs><mask id="SvgjsMask1016"><rect width="1440" height="560" fill="#ffffff"></rect></mask><g id="SvgjsG1018"><path d="M9.412 5.113c1.273 0 2.378 0.701 2.988 1.734l3.596 0.004v-1.949c0-0.725-0.584-1.314-1.299-1.314H1.295C0.578 3.588 0 4.176 0 4.902l0.004 1.932 6.418 0.005c0.614-1.029 1.715-1.725 2.99-1.725M3.361 2.97h-1.192l-0.138 0.434h1.429l-0.099-0.434zM14.11 2.738h-1.587L12.242 3.408H14.368l-0.258-0.67zM8.662 3.177h-1.366V2.508h1.366v0.669zM9.914 2.24h-3.857l-0.795 1.176h5.38L9.914 2.24z m2.672 4.955c0.199 0.443 0.316 0.93 0.316 1.449 0 1.949-1.563 3.531-3.49 3.531-1.93 0-3.493-1.582-3.493-3.531 0-0.519 0.116-1.006 0.316-1.451H0V12.514c0 0.721 0.577 1.309 1.295 1.309h13.401c0.716 0 1.299-0.588 1.3-1.309L16 7.195H12.586z"></path><path d="M11.315 7.484a1.717 1.717 0 0 0-0.199-0.278c-0.408-0.496-1.018-0.822-1.704-0.823-0.69 0-1.299 0.324-1.707 0.818-0.075 0.09-0.144 0.182-0.203 0.283-0.205 0.34-0.33 0.734-0.329 1.16 0 1.246 1.002 2.258 2.237 2.258 1.23 0 2.232-1.013 2.232-2.259 0-0.427-0.122-0.819-0.329-1.16"></path></g><g id="SvgjsG1017"><path d="M9.46 6.313c-1.577 0-2.86 1.283-2.86 2.86s1.283 2.86 2.86 2.86 2.86-1.283 2.86-2.86-1.283-2.86-2.86-2.86z"></path><path d="M13.26 3.839l-0.624-1.912h-6.352L5.661 3.839H0v10.668h16v-10.668H13.26zM3.744 6.743H1.543v-1.176H3.744v1.176z m5.716 6.624c-2.312 0-4.193-1.881-4.193-4.194s1.881-4.194 4.193-4.193 4.193 1.881 4.194 4.193-1.88 4.194-4.193 4.194z"></path></g><g id="SvgjsG1019"><use xlink:href="#SvgjsG1017" transform="translate(0, 0) scale(2)" fill="#0f457b"></use><use xlink:href="#SvgjsG1018" transform="translate(0, 48) scale(2)" fill="#0f457b"></use><use xlink:href="#SvgjsG1017" transform="translate(0, 96) scale(2)" fill="#0f457b"></use><use xlink:href="#SvgjsG1017" transform="translate(0, 144) scale(2)" fill="#0f457b"></use><use xlink:href="#SvgjsG1017" transform="translate(0, 192) scale(2)" fill="#0f457b"></use><use xlink:href="#SvgjsG1018" transform="translate(0, 240) scale(2)" fill="#0f457b"></use><use xlink:href="#SvgjsG1018" transform="translate(0, 288) scale(2)" fill="#0f457b"></use><use xlink:href="#SvgjsG1018" transform="translate(0, 336) scale(2)" fill="#0f457b"></use><use xlink:href="#SvgjsG1018" transform="translate(0, 384) scale(2)" fill="#0f457b"></use><use xlink:href="#SvgjsG1017" transform="translate(0, 432) scale(2)" fill="#0f457b"></use><use xlink:href="#SvgjsG1017" transform="translate(48, 0) scale(2)" fill="#0f457b"></use><use xlink:href="#SvgjsG1017" transform="translate(48, 48) scale(2)" fill="#0f457b"></use><use xlink:href="#SvgjsG1017" transform="translate(48, 96) scale(2)" fill="#0f457b"></use><use xlink:href="#SvgjsG1018" transform="translate(48, 144) scale(2)" fill="#0f457b"></use><use xlink:href="#SvgjsG1018" transform="translate(48, 192) scale(2)" fill="#0f457b"></use><use xlink:href="#SvgjsG1018" transform="translate(48, 240) scale(2)" fill="#0f457b"></use><use xlink:href="#SvgjsG1017" transform="translate(48, 288) scale(2)" fill="#0f457b"></use><use xlink:href="#SvgjsG1017" transform="translate(48, 336) scale(2)" fill="#0f457b"></use><use xlink:href="#SvgjsG1018" transform="translate(48, 384) scale(2)" fill="#0f457b"></use><use xlink:href="#SvgjsG1018" transform="translate(48, 432) scale(2)" fill="#0f457b"></use><use xlink:href="#SvgjsG1017" transform="translate(96, 0) scale(2)" fill="#0f457b"></use><use xlink:href="#SvgjsG1018" transform="translate(96, 48) scale(2)" fill="#0f457b"></use><use xlink:href="#SvgjsG1017" transform="translate(96, 96) scale(2)" fill="#0f457b"></use><use xlink:href="#SvgjsG1018" transform="translate(96, 144) scale(2)" fill="#0f457b"></use><use xlink:href="#SvgjsG1017" transform="translate(96, 192) scale(2)" fill="#0f457b"></use><use xlink:href="#SvgjsG1018" transform="translate(96, 240) scale(2)" fill="#0f457b"></use><use xlink:href="#SvgjsG1017" transform="translate(96, 288) scale(2)" fill="#0f457b"></use><use xlink:href="#SvgjsG1017" transform="translate(96, 336) scale(2)" fill="#0f457b"></use><use xlink:href="#SvgjsG1018" transform="translate(96, 384) scale(2)" fill="#0f457b"></use><use xlink:href="#SvgjsG1017" transform="translate(96, 432) scale(2)" fill="#0f457b"></use><use xlink:href="#SvgjsG1017" transform="translate(144, 0) scale(2)" fill="#0f457b"></use><use xlink:href="#SvgjsG1018" transform="translate(144, 48) scale(2)" fill="#0f457b"></use><use xlink:href="#SvgjsG1017" transform="translate(144, 96) scale(2)" fill="#0f457b"></use><use xlink:href="#SvgjsG1018" transform="translate(144, 144) scale(2)" fill="#0f457b"></use><use xlink:href="#SvgjsG1018" transform="translate(144, 192) scale(2)" fill="#0f457b"></use><use xlink:href="#SvgjsG1018" transform="translate(144, 240) scale(2)" fill="#0f457b"></use><use xlink:href="#SvgjsG1018" transform="translate(144, 288) scale(2)" fill="#0f457b"></use><use xlink:href="#SvgjsG1018" transform="translate(144, 336) scale(2)" fill="#0f457b"></use><use xlink:href="#SvgjsG1017" transform="translate(144, 384) scale(2)" fill="#0f457b"></use><use xlink:href="#SvgjsG1017" transform="translate(144, 432) scale(2)" fill="#0f457b"></use><use xlink:href="#SvgjsG1018" transform="translate(192, 0) scale(2)" fill="#0f457b"></use><use xlink:href="#SvgjsG1018" transform="translate(192, 48) scale(2)" fill="#0f457b"></use><use xlink:href="#SvgjsG1018" transform="translate(192, 96) scale(2)" fill="#0f457b"></use><use xlink:href="#SvgjsG1017" transform="translate(192, 144) scale(2)" fill="#0f457b"></use><use xlink:href="#SvgjsG1017" transform="translate(192, 192) scale(2)" fill="#0f457b"></use><use xlink:href="#SvgjsG1017" transform="translate(192, 240) scale(2)" fill="#0f457b"></use><use xlink:href="#SvgjsG1017" transform="translate(192, 288) scale(2)" fill="#0f457b"></use><use xlink:href="#SvgjsG1017" transform="translate(192, 336) scale(2)" fill="#0f457b"></use><use xlink:href="#SvgjsG1018" transform="translate(192, 384) scale(2)" fill="#0f457b"></use><use xlink:href="#SvgjsG1017" transform="translate(192, 432) scale(2)" fill="#0f457b"></use><use xlink:href="#SvgjsG1018" transform="translate(240, 0) scale(2)" fill="#0f457b"></use><use xlink:href="#SvgjsG1018" transform="translate(240, 48) scale(2)" fill="#0f457b"></use><use xlink:href="#SvgjsG1018" transform="translate(240, 96) scale(2)" fill="#0f457b"></use><use xlink:href="#SvgjsG1017" transform="translate(240, 144) scale(2)" fill="#0f457b"></use><use xlink:href="#SvgjsG1018" transform="translate(240, 192) scale(2)" fill="#0f457b"></use><use xlink:href="#SvgjsG1018" transform="translate(240, 240) scale(2)" fill="#0f457b"></use><use xlink:href="#SvgjsG1017" transform="translate(240, 288) scale(2)" fill="#0f457b"></use><use xlink:href="#SvgjsG1018" transform="translate(240, 336) scale(2)" fill="#0f457b"></use><use xlink:href="#SvgjsG1017" transform="translate(240, 384) scale(2)" fill="#0f457b"></use><use xlink:href="#SvgjsG1018" transform="translate(240, 432) scale(2)" fill="#0f457b"></use><use xlink:href="#SvgjsG1018" transform="translate(288, 0) scale(2)" fill="#0f457b"></use><use xlink:href="#SvgjsG1017" transform="translate(288, 48) scale(2)" fill="#0f457b"></use><use xlink:href="#SvgjsG1018" transform="translate(288, 96) scale(2)" fill="#0f457b"></use><use xlink:href="#SvgjsG1017" transform="translate(288, 144) scale(2)" fill="#0f457b"></use><use xlink:href="#SvgjsG1018" transform="translate(288, 192) scale(2)" fill="#0f457b"></use><use xlink:href="#SvgjsG1017" transform="translate(288, 240) scale(2)" fill="#0f457b"></use><use xlink:href="#SvgjsG1017" transform="translate(288, 288) scale(2)" fill="#0f457b"></use><use xlink:href="#SvgjsG1017" transform="translate(288, 336) scale(2)" fill="#0f457b"></use><use xlink:href="#SvgjsG1017" transform="translate(288, 384) scale(2)" fill="#0f457b"></use><use xlink:href="#SvgjsG1017" transform="translate(288, 432) scale(2)" fill="#0f457b"></use><use xlink:href="#SvgjsG1017" transform="translate(336, 0) scale(2)" fill="#0f457b"></use><use xlink:href="#SvgjsG1018" transform="translate(336, 48) scale(2)" fill="#0f457b"></use><use xlink:href="#SvgjsG1017" transform="translate(336, 96) scale(2)" fill="#0f457b"></use><use xlink:href="#SvgjsG1017" transform="translate(336, 144) scale(2)" fill="#0f457b"></use><use xlink:href="#SvgjsG1017" transform="translate(336, 192) scale(2)" fill="#0f457b"></use><use xlink:href="#SvgjsG1018" transform="translate(336, 240) scale(2)" fill="#0f457b"></use><use xlink:href="#SvgjsG1017" transform="translate(336, 288) scale(2)" fill="#0f457b"></use><use xlink:href="#SvgjsG1017" transform="translate(336, 336) scale(2)" fill="#0f457b"></use><use xlink:href="#SvgjsG1017" transform="translate(336, 384) scale(2)" fill="#0f457b"></use><use xlink:href="#SvgjsG1017" transform="translate(336, 432) scale(2)" fill="#0f457b"></use><use xlink:href="#SvgjsG1018" transform="translate(384, 0) scale(2)" fill="#0f457b"></use><use xlink:href="#SvgjsG1017" transform="translate(384, 48) scale(2)" fill="#0f457b"></use><use xlink:href="#SvgjsG1018" transform="translate(384, 96) scale(2)" fill="#0f457b"></use><use xlink:href="#SvgjsG1017" transform="translate(384, 144) scale(2)" fill="#0f457b"></use><use xlink:href="#SvgjsG1017" transform="translate(384, 192) scale(2)" fill="#0f457b"></use><use xlink:href="#SvgjsG1017" transform="translate(384, 240) scale(2)" fill="#0f457b"></use><use xlink:href="#SvgjsG1017" transform="translate(384, 288) scale(2)" fill="#0f457b"></use><use xlink:href="#SvgjsG1018" transform="translate(384, 336) scale(2)" fill="#0f457b"></use><use xlink:href="#SvgjsG1017" transform="translate(384, 384) scale(2)" fill="#0f457b"></use><use xlink:href="#SvgjsG1018" transform="translate(384, 432) scale(2)" fill="#0f457b"></use><use xlink:href="#SvgjsG1018" transform="translate(432, 0) scale(2)" fill="#0f457b"></use><use xlink:href="#SvgjsG1017" transform="translate(432, 48) scale(2)" fill="#0f457b"></use><use xlink:href="#SvgjsG1018" transform="translate(432, 96) scale(2)" fill="#0f457b"></use><use xlink:href="#SvgjsG1017" transform="translate(432, 144) scale(2)" fill="#0f457b"></use><use xlink:href="#SvgjsG1018" transform="translate(432, 192) scale(2)" fill="#0f457b"></use><use xlink:href="#SvgjsG1017" transform="translate(432, 240) scale(2)" fill="#0f457b"></use><use xlink:href="#SvgjsG1018" transform="translate(432, 288) scale(2)" fill="#0f457b"></use><use xlink:href="#SvgjsG1017" transform="translate(432, 336) scale(2)" fill="#0f457b"></use><use xlink:href="#SvgjsG1017" transform="translate(432, 384) scale(2)" fill="#0f457b"></use><use xlink:href="#SvgjsG1017" transform="translate(432, 432) scale(2)" fill="#0f457b"></use></g></defs></svg>