<svg xmlns="http://www.w3.org/2000/svg" version="1.1" xmlns:xlink="http://www.w3.org/1999/xlink" xmlns:svgjs="http://svgjs.com/svgjs" width="1440" height="560" preserveAspectRatio="none" viewBox="0 0 1440 560"><g mask="url(&quot;#SvgjsMask1008&quot;)" fill="none"><rect width="1440" height="560" x="0" y="0" fill="#0e2a47"></rect><path d="M0 439.53L10 464.96L20 455.24L30 447.85L40 415.88L50 405.95L60 446.6L70 396.98L80 426.69L90 417.88L100 452.02L110 504.96L120 505.88L130 444.79L140 498.63L150 429.89L160 389.32L170 420.46L180 454.87L190 448.51L200 508.82L210 528.45L220 532.5L230 523.41L240 463.43L250 410.96L260 476.39L270 541.59L280 475.82L290 486.83L300 496.49L310 427.82L320 463.76L330 445.34L340 389.32L350 357.04L360 412.91L370 457.27L380 443.16L390 400.72L400 359.59L410 333.23L420 269.79L430 218.06L440 279.26L450 261.93L460 220.75L470 221.15L480 195.24L490 150.24L500 120.79L510 133.6L520 124.02L530 156.59L540 216.34L550 217.87L560 175.66L570 244.24L580 204.13L590 273.12L600 297.49L610 364.62L620 390.61L630 456.65L640 462.54L650 411.63L660 383.25L670 368.34L680 344.46L690 380.55L700 356.6L710 411.18L720 428.57L730 482.85L740 416.95L750 379.85L760 310.46L770 302.2L780 301.58L790 266.47L800 298.69L810 232.57L820 209.54L830 147.38L840 86.82L850 27.21L860 63.06L870 91.19L880 136.14L890 98.89L900 69.58L910 133.91L920 110.51L930 123.22L940 163.87L950 169.05L960 226.83L970 231.06L980 281.26L990 223.33L1000 199.41L1010 178.55L1020 138.78L1030 148.4L1040 166.25L1050 114.69L1060 76.04L1070 141.34L1080 173.27L1090 130.65L1100 68.68L1110 129.42L1120 177.88L1130 190.88L1140 149.47L1150 132.54L1160 181.53L1170 241.44L1180 292.9L1190 226.33L1200 160.1L1210 133.89L1220 143.09L1230 119.79L1240 88.15L1250 134.61L1260 117.93L1270 117.76L1280 104.94L1290 43.08L1300 7.29L1310 63.29L1320 110.64L1330 77.11L1340 45.49L1350 44.39L1360 14.65L1370 3.37L1380 27.26L1390 82.77L1400 130.83L1410 64.29L1420 57.24L1430 12.7L1440 58.85" stroke="#224b75" stroke-width="2"></path><path d="M0 439.53L10 464.96L20 455.24L30 447.85L40 415.88L50 405.95L60 446.6L70 396.98L80 426.69L90 417.88L100 452.02L110 504.96L120 505.88L130 444.79L140 498.63L150 429.89L160 389.32L170 420.46L180 454.87L190 448.51L200 508.82L210 528.45L220 532.5L230 523.41L240 463.43L250 410.96L260 476.39L270 541.59L280 475.82L290 486.83L300 496.49L310 427.82L320 463.76L330 445.34L340 389.32L350 357.04L360 412.91L370 457.27L380 443.16L390 400.72L400 359.59L410 333.23L420 269.79L430 218.06L440 279.26L450 261.93L460 220.75L470 221.15L480 195.24L490 150.24L500 120.79L510 133.6L520 124.02L530 156.59L540 216.34L550 217.87L560 175.66L570 244.24L580 204.13L590 273.12L600 297.49L610 364.62L620 390.61L630 456.65L640 462.54L650 411.63L660 383.25L670 368.34L680 344.46L690 380.55L700 356.6L710 411.18L720 428.57L730 482.85L740 416.95L750 379.85L760 310.46L770 302.2L780 301.58L790 266.47L800 298.69L810 232.57L820 209.54L830 147.38L840 86.82L850 27.21L860 63.06L870 91.19L880 136.14L890 98.89L900 69.58L910 133.91L920 110.51L930 123.22L940 163.87L950 169.05L960 226.83L970 231.06L980 281.26L990 223.33L1000 199.41L1010 178.55L1020 138.78L1030 148.4L1040 166.25L1050 114.69L1060 76.04L1070 141.34L1080 173.27L1090 130.65L1100 68.68L1110 129.42L1120 177.88L1130 190.88L1140 149.47L1150 132.54L1160 181.53L1170 241.44L1180 292.9L1190 226.33L1200 160.1L1210 133.89L1220 143.09L1230 119.79L1240 88.15L1250 134.61L1260 117.93L1270 117.76L1280 104.94L1290 43.08L1300 7.29L1310 63.29L1320 110.64L1330 77.11L1340 45.49L1350 44.39L1360 14.65L1370 3.37L1380 27.26L1390 82.77L1400 130.83L1410 64.29L1420 57.24L1430 12.7L1440 58.85L1440 560L0 560z" fill="url(#SvgjsLinearGradient1009)"></path></g><defs><mask id="SvgjsMask1008"><rect width="1440" height="560" fill="#ffffff"></rect></mask><linearGradient x1="50%" y1="0%" x2="50%" y2="100%" id="SvgjsLinearGradient1009"><stop stop-opacity="0.65" stop-color="#224b75" offset="0"></stop><stop stop-opacity="0" stop-color="#508dcc" offset="0.8"></stop></linearGradient></defs></svg>